<svg width="74" height="74" viewBox="0 0 74 74" fill="none" xmlns="http://www.w3.org/2000/svg">
<path d="M37 0C29.6821 0 22.5285 2.17001 16.4439 6.23562C10.3593 10.3012 5.61691 16.0798 2.81647 22.8407C0.0160315 29.6016 -0.716692 37.041 0.710961 44.2183C2.13861 51.3956 5.66252 57.9884 10.8371 63.1629C16.0116 68.3375 22.6044 71.8614 29.7817 73.289C36.959 74.7167 44.3984 73.984 51.1593 71.1835C57.9202 68.3831 63.6988 63.6407 67.7644 57.5561C71.83 51.4715 74 44.3179 74 37C74 32.1411 73.043 27.3298 71.1835 22.8407C69.3241 18.3517 66.5987 14.2728 63.1629 10.837C59.7272 7.40128 55.6483 4.67588 51.1593 2.81646C46.6702 0.957033 41.8589 0 37 0V0ZM37 66.6C31.1457 66.6 25.4228 64.864 20.5551 61.6115C15.6874 58.359 11.8935 53.7361 9.65318 48.3274C7.41283 42.9187 6.82665 36.9672 7.96877 31.2253C9.11089 25.4835 11.93 20.2093 16.0697 16.0696C20.2093 11.93 25.4835 9.11088 31.2253 7.96875C36.9672 6.82663 42.9187 7.41281 48.3274 9.65316C53.7361 11.8935 58.359 15.6874 61.6115 20.5551C64.864 25.4228 66.6 31.1457 66.6 37C66.6 44.8504 63.4814 52.3793 57.9304 57.9303C52.3793 63.4814 44.8504 66.6 37 66.6V66.6Z" fill="#ED662C"/>
<path d="M37.0008 55.4996C39.0442 55.4996 40.7008 53.8431 40.7008 51.7996C40.7008 49.7562 39.0442 48.0996 37.0008 48.0996C34.9573 48.0996 33.3008 49.7562 33.3008 51.7996C33.3008 53.8431 34.9573 55.4996 37.0008 55.4996Z" fill="#ED662C"/>
<path d="M37.0008 18.5C36.0195 18.5 35.0784 18.8898 34.3845 19.5837C33.6906 20.2776 33.3008 21.2187 33.3008 22.2V40.7C33.3008 41.6813 33.6906 42.6224 34.3845 43.3163C35.0784 44.0102 36.0195 44.4 37.0008 44.4C37.9821 44.4 38.9232 44.0102 39.6171 43.3163C40.311 42.6224 40.7008 41.6813 40.7008 40.7V22.2C40.7008 21.2187 40.311 20.2776 39.6171 19.5837C38.9232 18.8898 37.9821 18.5 37.0008 18.5Z" fill="#ED662C"/>
</svg>
