<svg width="8" height="12" viewBox="0 0 8 14" fill="none" xmlns="http://www.w3.org/2000/svg">
<path d="M7.60601 0.26929C7.52087 0.183929 7.41972 0.116204 7.30836 0.0699948C7.197 0.0237857 7.07762 0 6.95705 0C6.83648 0 6.7171 0.0237857 6.60574 0.0699948C6.49438 0.116204 6.39324 0.183929 6.30809 0.26929L0.214447 6.36293C0.146468 6.43077 0.0925362 6.51135 0.0557386 6.60006C0.018941 6.68877 0 6.78386 0 6.8799C0 6.97594 0.018941 7.07104 0.0557386 7.15974C0.0925362 7.24845 0.146468 7.32903 0.214447 7.39687L6.30809 13.4905C6.6674 13.8498 7.2467 13.8498 7.60601 13.4905C7.96533 13.1312 7.96533 12.5519 7.60601 12.1926L2.29699 6.87624L7.61335 1.55988C7.96533 1.2079 7.96533 0.621269 7.60601 0.26929Z" fill="#FF5555"/>
</svg>
