<svg width="69" height="58" viewBox="0 0 69 58" fill="none" xmlns="http://www.w3.org/2000/svg">
<path d="M61.3302 31.6788V29.6189C62.4288 29.8835 63.6493 30.2823 63.6493 30.2823C66.3618 30.2823 67.5887 28.6311 66.3748 26.6129L64.6584 23.7582C65.5069 23.2452 65.7322 22.3154 65.0896 21.247L63.0994 17.9382C64.0406 17.6265 64.3716 16.8245 63.8034 15.8801L61.2709 11.6697C60.5453 10.459 59.3573 10.459 58.6295 11.6697L56.0959 15.8801C55.5288 16.8236 55.8587 17.6274 56.801 17.9382L54.8108 21.247C54.1682 22.3163 54.3957 23.2452 55.241 23.7582L53.5257 26.6129C52.3117 28.6311 53.5386 30.2823 56.2501 30.2823C56.2501 30.2823 57.4727 29.8835 58.5702 29.6189V31.3716C56.6268 31.0686 54.7229 30.6079 52.8853 29.9959C50.4034 29.1667 46.2343 27.7819 42.5816 27.7602C42.5547 27.7602 29.022 16.8018 29.022 16.8018L12.8383 4.30371L2.15625 9.86537V30.3937C5.58469 31.4577 13.8129 32.9693 21.4008 32.9693C25.5074 32.9693 29.5395 32.5198 33.3863 31.6308C34.3447 31.4087 35.2827 31.1178 36.2767 30.8106C38.2788 30.1898 40.3499 29.5491 42.504 29.5491H42.573C45.8839 29.5681 49.8234 30.884 52.1748 31.6688C54.0098 32.2824 56.1337 32.847 58.5745 33.1687V36.7067H61.3302V33.3952C63.038 33.4732 64.8632 33.436 66.8438 33.2022V31.5646C65.0165 31.7729 63.1675 31.8112 61.3302 31.6788ZM18.202 13.0798V15.5539L15.304 14.2299L11.9834 15.6998L10.9818 13.0989L6.46444 14.5117L7.64714 11.6552L4.5982 10.7607L12.7014 6.48052L21.7824 13.6662L18.202 13.0798Z" fill="#395825"/>
<path d="M23.7188 8.97007H30.7665C31.1491 9.51616 31.6949 9.96865 32.3499 10.2826C33.0048 10.5966 33.746 10.7611 34.5 10.7599H38.8125C41.1898 10.7599 43.125 9.15494 43.125 7.18113C43.125 5.20823 41.1898 3.60235 38.8125 3.60235H38.2335C37.8509 3.05626 37.3051 2.60377 36.6501 2.2898C35.9952 1.97583 35.254 1.81129 34.5 1.81251H23.7188C21.3415 1.81251 19.4062 3.41838 19.4062 5.39129C19.4062 7.3651 21.3415 8.97007 23.7188 8.97007ZM23.7188 3.60235H34.5C35.6903 3.60235 36.6562 4.40348 36.6562 5.39219H38.8125C40.0028 5.39219 40.9688 6.19332 40.9688 7.18204C40.9688 8.17076 40.0028 8.97188 38.8125 8.97188H34.5C33.3097 8.97188 32.3438 8.17076 32.3438 7.18204H23.7188C22.5285 7.18204 21.5625 6.38091 21.5625 5.39219C21.5625 4.40348 22.5285 3.60235 23.7188 3.60235Z" fill="#395825"/>
<path d="M34.5 14.3386C34.5 16.3124 36.4352 17.9174 38.8125 17.9174H43.125C45.5023 17.9174 47.4375 16.3124 47.4375 14.3386C47.4375 13.716 47.2283 13.1414 46.8909 12.6312C47.655 13.1535 48.6089 13.44 49.5938 13.4432H53.9062C56.2835 13.4432 58.2188 11.8382 58.2188 9.86443C58.2188 7.89152 56.2835 6.28564 53.9062 6.28564H49.5938C47.2165 6.28564 45.2812 7.89152 45.2812 9.86443C45.2812 10.4861 45.4904 11.0625 45.8279 11.5727C45.0641 11.0498 44.1101 10.7629 43.125 10.7598H38.8125C36.4352 10.7598 34.5 12.3666 34.5 14.3386ZM49.5938 8.07549H53.9062C55.0965 8.07549 56.0625 8.87661 56.0625 9.86533C56.0625 10.8541 55.0965 11.6552 53.9062 11.6552H49.5938C48.4035 11.6552 47.4375 10.8541 47.4375 9.86533C47.4375 8.87661 48.4035 8.07549 49.5938 8.07549ZM38.8125 12.5496H43.125C44.3153 12.5496 45.2812 13.3508 45.2812 14.3395C45.2812 15.3282 44.3153 16.1293 43.125 16.1293H38.8125C37.6223 16.1293 36.6562 15.3282 36.6562 14.3395C36.6562 13.3508 37.6223 12.5496 38.8125 12.5496Z" fill="#395825"/>
<path d="M20.3496 37.6022C19.966 37.6071 19.5855 37.6606 19.2208 37.7608C18.4392 35.594 16.1471 34.0234 13.4421 34.0234C12.0714 34.0266 10.7456 34.4346 9.69666 35.1762C9.14789 34.4802 8.24227 34.0234 7.20942 34.0234C5.53294 34.0234 4.17666 35.2242 4.17666 36.7078C4.17666 37.1518 4.31034 37.5632 4.52381 37.9321C3.1298 38.4967 2.15625 39.7355 2.15625 41.1819C2.15625 43.1575 3.96642 44.7598 6.2003 44.7598C7.49836 44.7598 8.64009 44.2088 9.37969 43.3678C10.4546 44.2296 11.8766 44.7598 13.4421 44.7598C14.8691 44.7569 16.246 44.3168 17.3147 43.5218C18.0564 44.274 19.1346 44.7598 20.3496 44.7598C22.5824 44.7598 24.3926 43.1566 24.3926 41.181C24.3926 39.2054 22.5824 37.6022 20.3496 37.6022Z" fill="#395825"/>
<path d="M33.107 33.3518L25.2227 46.2713L26.6005 52.1746L40.8296 56.1875L57.6494 53.7343L59.2547 46.3366L51.7337 33.3518H33.107ZM29.5244 51.581L28.0096 51.1542L26.9153 46.4671L32.9248 36.6225C31.465 41.4229 28.4894 48.7717 28.4894 48.7717L29.5244 51.581ZM40.173 54.5843L35.978 53.4017L37.1866 49.4522C35.5565 46.4172 34.4029 39.6294 33.894 36.1585L36.7004 41.238L40.7638 48.5904L40.173 54.5843ZM56.2576 52.5752L41.7859 54.6858L42.3411 49.0589L43.1605 48.9602L57.4187 47.231L56.2576 52.5752ZM42.9524 47.6289L42.0705 47.7349L37.8497 40.0961L34.8643 34.694H50.7171L57.2074 45.8988L42.9524 47.6289Z" fill="#395825"/>
</svg>
