<svg width="74" height="74" viewBox="0 0 74 74" fill="none" xmlns="http://www.w3.org/2000/svg">
<path d="M37 69.375C28.4136 69.375 20.1789 65.9641 14.1074 59.8926C8.03593 53.8211 4.625 45.5864 4.625 37C4.625 28.4136 8.03593 20.1789 14.1074 14.1074C20.1789 8.03593 28.4136 4.625 37 4.625C45.5864 4.625 53.8211 8.03593 59.8926 14.1074C65.9641 20.1789 69.375 28.4136 69.375 37C69.375 45.5864 65.9641 53.8211 59.8926 59.8926C53.8211 65.9641 45.5864 69.375 37 69.375ZM37 74C46.813 74 56.2241 70.1018 63.163 63.163C70.1018 56.2241 74 46.813 74 37C74 27.187 70.1018 17.7759 63.163 10.837C56.2241 3.8982 46.813 0 37 0C27.187 0 17.7759 3.8982 10.837 10.837C3.8982 17.7759 0 27.187 0 37C0 46.813 3.8982 56.2241 10.837 63.163C17.7759 70.1018 27.187 74 37 74Z" fill="#ED662C"/>
<path d="M50.7371 22.9862C50.7041 23.0181 50.6732 23.0521 50.6446 23.088L34.582 43.5536L24.9018 33.8688C24.2443 33.2561 23.3746 32.9225 22.4759 32.9384C21.5773 32.9543 20.7199 33.3183 20.0843 33.9538C19.4488 34.5894 19.0848 35.4468 19.0689 36.3454C19.053 37.2441 19.3866 38.1138 19.9993 38.7713L32.2371 51.0137C32.5668 51.3428 32.9593 51.6021 33.3914 51.7761C33.8235 51.9502 34.2862 52.0355 34.7519 52.0268C35.2176 52.0182 35.6769 51.9159 36.1022 51.7259C36.5275 51.5359 36.9102 51.2623 37.2275 50.9212L55.6905 27.8425C56.3191 27.1826 56.6629 26.3018 56.6473 25.3906C56.6318 24.4793 56.2583 23.6108 55.6075 22.9728C54.9567 22.3347 54.0809 21.9785 53.1695 21.981C52.2581 21.9835 51.3844 22.3446 50.7371 22.9862Z" fill="#ED662C"/>
</svg>
