<svg width="13" height="12" viewBox="0 0 13 12" fill="none" xmlns="http://www.w3.org/2000/svg">
<path d="M6.5 12C6.41022 11.9997 6.32307 11.969 6.25215 11.9127C3.99303 10.1166 2.43685 8.57004 1.34792 7.04423C-0.0416774 5.09434 -0.358604 3.29413 0.405269 1.69349C0.949732 0.550165 2.51405 -0.385279 4.34246 0.159357C5.21423 0.417015 5.97483 0.96957 6.5 1.72675C7.02517 0.96957 7.78577 0.417015 8.65753 0.159357C10.4819 -0.376964 12.0503 0.550165 12.5947 1.69349C13.3586 3.29413 13.0417 5.09434 11.6521 7.04423C10.5632 8.57004 9.00697 10.1166 6.74785 11.9127C6.67693 11.969 6.58978 11.9997 6.5 12ZM3.3023 0.837034C2.86724 0.819709 2.43578 0.923946 2.05424 1.13856C1.6727 1.35317 1.35548 1.67005 1.13664 2.05519C0.506848 3.37728 0.791269 4.84905 2.00615 6.54948C3.29725 8.25348 4.80908 9.76966 6.5 11.0562C8.19065 9.77093 9.70247 8.25616 10.9938 6.55364C12.2128 4.84905 12.4932 3.37728 11.8634 2.05935C11.457 1.22784 10.2381 0.566795 8.88101 0.957603C8.44586 1.08919 8.04246 1.31254 7.69676 1.61328C7.35107 1.91401 7.07074 2.28548 6.87381 2.70376C6.8432 2.78002 6.79112 2.84524 6.7242 2.89114C6.65728 2.93704 6.57853 2.96155 6.49797 2.96155C6.4174 2.96155 6.33866 2.93704 6.27174 2.89114C6.20481 2.84524 6.15274 2.78002 6.12213 2.70376C5.92668 2.28443 5.64683 1.9121 5.30092 1.61117C4.95501 1.31025 4.55085 1.08753 4.11493 0.957603C3.85081 0.879109 3.57732 0.838532 3.3023 0.837034Z" fill="#ED662C"/>
<rect width="6" height="6" rx="3" fill="#ED662C"/>
<rect x="7" width="6" height="6" rx="3" fill="#ED662C"/>
<rect x="1" y="2" width="11" height="6" rx="3" fill="#ED662C"/>
<rect x="5" y="7" width="4" height="4" rx="2" fill="#ED662C"/>
<rect x="3" y="6" width="4" height="4" rx="2" fill="#ED662C"/>
<rect x="6" y="6" width="4" height="4" rx="2" fill="#ED662C"/>
<rect x="5" y="8" width="1" height="3" rx="0.5" fill="#ED662C"/>
<rect x="6" y="9" width="1" height="3" rx="0.5" fill="#ED662C"/>
</svg>
