<svg width="10" height="12" viewBox="0 0 10 12" fill="none" xmlns="http://www.w3.org/2000/svg">
<path d="M0.857266 4.71429C0.857266 3.69131 1.26364 2.71023 1.987 1.98688C2.71036 1.26352 3.69144 0.857144 4.71442 0.857144C5.7374 0.857144 6.71848 1.26352 7.44183 1.98688C8.16519 2.71023 8.57157 3.69131 8.57157 4.71429C8.57157 6.29658 7.30556 8.35887 4.71442 10.8292C2.12327 8.35887 0.857266 6.29658 0.857266 4.71429ZM4.71442 12C7.85757 9.14316 9.42871 6.71401 9.42871 4.71429C9.42871 3.46399 8.93203 2.26489 8.04793 1.38078C7.16382 0.496683 5.96473 0 4.71442 0C3.46411 0 2.26501 0.496683 1.38091 1.38078C0.496805 2.26489 0.00012207 3.46399 0.00012207 4.71429C0.00012207 6.71401 1.57127 9.14316 4.71442 12Z" fill="#609238"/>
<path d="M4.71456 6.00011C4.37357 6.00011 4.04654 5.86465 3.80542 5.62353C3.5643 5.38242 3.42884 5.05539 3.42884 4.71439C3.42884 4.3734 3.5643 4.04637 3.80542 3.80526C4.04654 3.56414 4.37357 3.42868 4.71456 3.42868C5.05555 3.42868 5.38258 3.56414 5.6237 3.80526C5.86482 4.04637 6.00028 4.3734 6.00028 4.71439C6.00028 5.05539 5.86482 5.38242 5.6237 5.62353C5.38258 5.86465 5.05555 6.00011 4.71456 6.00011ZM4.71456 6.85726C5.28288 6.85726 5.82793 6.63149 6.22979 6.22963C6.63166 5.82776 6.85742 5.28272 6.85742 4.71439C6.85742 4.14607 6.63166 3.60103 6.22979 3.19916C5.82793 2.7973 5.28288 2.57153 4.71456 2.57153C4.14624 2.57153 3.60119 2.7973 3.19933 3.19916C2.79746 3.60103 2.5717 4.14607 2.5717 4.71439C2.5717 5.28272 2.79746 5.82776 3.19933 6.22963C3.60119 6.63149 4.14624 6.85726 4.71456 6.85726Z" fill="#609238"/>
</svg>
