<svg width="18" height="17" viewBox="0 0 18 17" fill="none" xmlns="http://www.w3.org/2000/svg">
<path d="M9 16.6154C8.8757 16.615 8.75502 16.5725 8.65682 16.4945C5.52882 14.0077 3.37409 11.8662 1.86635 9.75354C-0.0577072 7.05371 -0.496528 4.56111 0.561142 2.34483C1.31501 0.761767 3.48099 -0.533463 6.01264 0.220648C7.2197 0.577406 8.27284 1.34248 9 2.39088C9.72716 1.34248 10.7803 0.577406 11.9874 0.220648C14.5134 -0.52195 16.685 0.761767 17.4389 2.34483C18.4965 4.56111 18.0577 7.05371 16.1336 9.75354C14.6259 11.8662 12.4712 14.0077 9.34318 16.4945C9.24498 16.5725 9.1243 16.615 9 16.6154ZM4.57241 1.15897C3.97002 1.13498 3.37262 1.27931 2.84433 1.57647C2.31604 1.87362 1.87682 2.31238 1.57381 2.84565C0.70179 4.67624 1.0956 6.71407 2.77775 9.06851C4.56542 11.4279 6.65873 13.5272 9 15.3086C11.3409 13.529 13.4342 11.4316 15.2222 9.07427C16.91 6.71407 17.2982 4.67624 16.4262 2.85141C15.8636 1.70009 14.1758 0.784793 12.2968 1.32591C11.6943 1.50811 11.1357 1.81736 10.6571 2.23377C10.1784 2.65017 9.79025 3.16451 9.51758 3.74367C9.4752 3.84926 9.40309 3.93956 9.31043 4.00312C9.21777 4.06667 9.10874 4.1006 8.99719 4.1006C8.88564 4.1006 8.7766 4.06667 8.68394 4.00312C8.59128 3.93956 8.51918 3.84926 8.47679 3.74367C8.20617 3.16306 7.81869 2.64752 7.33973 2.23086C6.86078 1.81419 6.30117 1.5058 5.69759 1.32591C5.3319 1.21723 4.95322 1.16104 4.57241 1.15897Z" fill="#ED662C"/>
</svg>
