<svg width="19" height="14" viewBox="0 0 19 14" fill="none" xmlns="http://www.w3.org/2000/svg">
<path d="M17.7604 5.625H0.989583C0.443052 5.625 0 6.1035 0 6.69375V6.80625C0 7.39651 0.443052 7.875 0.989583 7.875H17.7604C18.3069 7.875 18.75 7.39651 18.75 6.80625V6.69375C18.75 6.1035 18.3069 5.625 17.7604 5.625Z" fill="white"/>
<path d="M17.7604 11.25H0.989583C0.443052 11.25 0 11.7285 0 12.3188V12.4312C0 13.0215 0.443052 13.5 0.989583 13.5H17.7604C18.3069 13.5 18.75 13.0215 18.75 12.4312V12.3188C18.75 11.7285 18.3069 11.25 17.7604 11.25Z" fill="white"/>
<path d="M17.7604 0H0.989583C0.443052 0 0 0.478495 0 1.06875V1.18125C0 1.7715 0.443052 2.25 0.989583 2.25H17.7604C18.3069 2.25 18.75 1.7715 18.75 1.18125V1.06875C18.75 0.478495 18.3069 0 17.7604 0Z" fill="white"/>
</svg>
