<svg width="24" height="23" viewBox="0 0 24 23" fill="none" xmlns="http://www.w3.org/2000/svg">
<path d="M2.22096 0.121498L23.291 10.1995C23.5036 10.3013 23.6832 10.4612 23.8089 10.6607C23.9346 10.8602 24.0013 11.0912 24.0013 11.327C24.0013 11.5628 23.9346 11.7938 23.8089 11.9933C23.6832 12.1928 23.5036 12.3527 23.291 12.4545L2.22096 22.5325C2.00487 22.6361 1.76356 22.6754 1.52578 22.6457C1.288 22.616 1.06377 22.5186 0.879785 22.365C0.695802 22.2115 0.559826 22.0083 0.488052 21.7797C0.416279 21.5511 0.411733 21.3066 0.474955 21.0755L3.13496 11.3275L0.474955 1.5775C0.412242 1.34649 0.417174 1.10234 0.489164 0.874058C0.561154 0.645775 0.697175 0.442962 0.88106 0.289724C1.06495 0.136486 1.28896 0.0392678 1.52649 0.00962375C1.76401 -0.0200203 2.00505 0.0191565 2.22096 0.122498V0.121498ZM2.06596 1.7115L4.48896 10.5985H15.431C15.6125 10.5986 15.7878 10.6645 15.9245 10.784C16.0611 10.9035 16.1498 11.0686 16.174 11.2485L16.181 11.3485C16.1812 11.5299 16.1157 11.7053 15.9965 11.8421C15.8774 11.9788 15.7127 12.0678 15.533 12.0925L15.431 12.0995L4.47696 12.0985L2.06696 20.9435L22.173 11.3265L2.06596 1.7105V1.7115Z" fill="#ED662C"/>
</svg>
